<svg xmlns="http://www.w3.org/2000/svg" xmlns:xlink="http://www.w3.org/1999/xlink" version="1.1" enable-background="new 0 0 2618 479" xml:space="preserve" width="262" height="35" style=""><rect id="backgroundrect" width="100%" height="100%" x="0" y="0" fill="none" stroke="none" class="" style=""/>

<g class="currentLayer" style=""><title>Layer 1</title><path d="M262.10907589827207,18.060734034767677 C205.74127841340396,18.105483567950376 221.13525527035847,17.445033818050756 178.3573372022307,13.91021685328015 C173.8514189856613,17.237318369716558 174.83851203089014,16.83178330477636 174.05529413981995,16.856611817225147 C172.93957953661396,12.61904527281475 165.21515523806343,12.552895195036825 164.18528535813365,16.980738209809417 C164.0780562599219,16.980738209809417 151.8478107627601,17.030387149877154 151.7619660394839,16.906260757292888 C151.01102278914814,15.822020396666886 149.42321071690205,15.209554111887288 147.86756818260244,15.118575521660572 C148.39324381901415,13.860559828382568 147.07365406164953,12.74325251369745 145.15334527726765,12.991513383695828 C144.97095960083251,13.123967151018702 144.82075154717376,16.459323278725122 135.2726483505285,16.81520940359758 C134.89718076777555,15.333761352769988 134.43586037691657,15.03577069440544 133.87800711772852,14.357073483549483 C137.32178081363364,11.990005086856375 145.02462670133238,9.805031312724033 144.41309825681458,7.048993667439661 C144.1019940044442,5.8323803877892235 142.64289242330352,5.584046754322255 141.9026534876803,5.757902935272695 C138.3837232135518,6.362049930143534 136.0020940383109,11.584542785384766 133.2235158874234,13.877060966092756 C132.30088319053522,13.388721073897425 131.29240577037083,12.991513383695828 130.18738739704756,12.834231103924164 C130.39126255120618,5.882037412686805 134.99361661814652,5.302718930264757 135.10095081914625,5.2447345306285715 C135.4227513013993,3.349424040122177 133.35223446335868,2.9108139362930165 132.26870556775887,3.1921498451803565 C132.3115713355881,1.280257368665343 129.8334092920181,-0.2674135234087641 128.98582807056533,0.038823661395957595 C127.2692893375541,0.4857611399637229 126.25011568750705,1.8844771270047707 126.15357473434811,3.233552258807924 C124.52288880944296,2.7701136425299726 122.96724627514337,3.9204959961040524 123.43935182901333,5.269563043077362 C124.19029507934907,5.4681668881781595 124.94132726281309,5.708173146906522 125.49918052200114,6.155118710304132 C127.49465396943624,7.719363503557014 128.23489290505944,10.616109527434274 128.33143385821836,12.842477630364337 C127.22641548489507,12.966604022948605 126.17506421207165,13.322490147821066 125.30610670051317,13.868733591354149 C123.83630888948979,12.883880043991905 122.17343725697842,10.036710196713793 119.67377765085509,7.55383469734518 C116.35873061571507,4.086024802315887 112.46443786162158,6.213014176812042 114.80319318420342,8.82842429180196 C116.5304200622675,10.765137195935921 122.20571998254273,12.61904527281475 124.61952678056,14.390148522438444 C123.84710213733061,15.060518358555797 123.38578983130144,15.92132636163221 123.20340415486632,16.79862741758896 C119.55575530480255,16.68274755144487 114.12730949413294,15.797199969047941 113.36558108078624,13.024588422584792 C110.90879532732198,12.71835123778007 110.254401114975,14.232947090965215 110.65135817545145,15.13507665937076 C111.04831523592789,16.037206227776302 107.43284400864047,15.888251322743248 106.66041936541109,16.997312110988194 C93.48615679642556,16.997312110988194 94.37660378570754,17.005558637428365 94.14055100877255,16.96423707209923 C94.02252866271998,16.6828283997433 93.96895858017824,16.376591214938575 93.81875052651948,16.10350991732125 C91.97349321757298,12.536402142156483 85.25764335714497,13.090892112129739 84.30283303748044,16.70765691219209 C84.3135211825333,17.70083783429294 80.96639354257502,14.431631784364445 79.88275954418727,13.935037280899095 C78.78843740074666,14.001268206975457 81.72801685313375,13.761261948247093 43.846514283007004,16.848357205955132 C43.25648340104258,16.906260757292888 45.93852059877116,16.873185718403928 0.0859417412343363,16.881432244844092 L0,16.997392959286625 L0.12157967118362642,16.954276561732275 C51.016440526754415,16.9377026605535 29.61001017539914,17.154594390759854 79.94701777178186,21.24319794530735 C81.33096277469917,20.183794181959986 82.73639725534002,19.132709708521386 84.12034225825735,18.065051333904005 C84.31342416457517,18.073297860344173 84.27055031191611,18.2636551790048 84.32421741241598,18.363033907438712 C85.35407920751591,22.236378867408202 92.83176258407859,22.45156469851762 94.05470628549634,18.296811066192195 C94.05470628549634,18.089871761522954 93.29297787214963,18.156102687599308 106.73547084084647,18.16434921403948 C107.7224668681172,19.17411212214895 109.14938274165169,19.88588437189387 110.60837922000441,19.811326071078906 C110.30796311268689,21.458302928118336 111.40229334095733,22.194903690312046 113.32260212533923,22.012873746390024 C114.20226395161022,19.223680213918257 119.52357768202617,18.230580140115837 123.23548475968455,18.222252765377235 C123.42855858117252,19.058151407706422 123.85769326442532,19.877556997155267 124.58724405499568,20.523098320823827 C122.8063419916019,22.021120272830196 115.63987605502743,24.288898874217672 114.29879681993928,26.76351976231627 C113.83748451391014,27.558024075847733 113.9876925675689,28.766382744228157 115.55402324692136,29.138850855109233 C119.13730876660257,29.97474949743842 122.473748261508,23.246060927219236 125.24163826734265,21.052767863178136 C126.13209334145448,21.607257833151394 127.1834446142779,21.99629984521125 128.32064061037758,22.128672764235688 C128.27776675771852,23.96600693993574 127.62326744258357,26.523440740119312 126.41101997104849,27.963559140787932 C125.09143829851374,29.594034860117173 123.82551564164898,29.560887057759622 123.41787043611966,29.759563666329 C123.02091337564323,31.274167604343994 124.49070310183677,32.25077462526607 126.15357473434811,31.853486086766036 C126.27160516523055,33.33492605276379 127.52683159221262,34.88267779313633 129.24337032522385,35.08128163823712 C130.86336810507618,34.874350418397725 132.2580093378762,33.2273735613583 132.24731310799348,31.870059987944817 C133.1055824744991,32.07699120778422 134.10326664682268,31.861813461504642 134.68260938373425,31.332063070851902 C135.15461791964609,30.885125592284137 135.14392977459326,30.280986682243142 135.11174406698706,29.734743238710063 C134.03891140126996,29.478154993973074 133.28797623576406,29.34578207494863 132.23662496294062,28.187072346635954 C130.13392241729377,25.687614861258716 130.27333722311172,22.79912344865147 130.1017447945174,22.120426237795517 C131.21745131289356,21.963143958023856 132.31177345633415,21.62383173433017 133.15924957499897,21.03619396199936 C135.3478049287519,22.352105121785275 138.78088239477432,29.27955114887228 142.38555228939111,29.15534390798958 C144.48825483503796,28.99806971304776 144.60628526592038,27.624174153625656 144.3380467813792,26.97862474512725 C143.2760073635029,24.42119902977352 135.89496195805728,22.120345389497082 133.8887033476112,20.514698182616634 C134.55389080779895,19.836000971760676 135.04738882143434,19.066325170678002 135.21898125002866,18.222099153610213 C138.89880772286878,18.230345680050384 144.4237944866973,19.198706174532287 145.09967817676778,22.004392759884396 C147.27752921580816,22.27754682097031 148.29670286585525,21.085689290300074 147.86756818260244,19.836000971760676 C149.6484702459962,19.769770045684318 151.11825997218975,18.9752738169827 151.75116470681323,18.13936708982367 C155.90300780039507,18.15594907583229 160.06553095419991,18.131120563383497 164.2173659629519,18.15594907583229 C165.04345770668115,22.095524961878134 172.7249111346145,22.7410662855467 174.0873747446382,18.0152406972394 C178.35723209944274,21.09408942850727 177.97097126884898,21.284446747167895 178.66834443664297,21.209969294651366 C227.9507749130948,17.20790575874661 208.43693854941856,18.090340681653863 258.2475590443633,18.05571335543499 L262.1089707954841,18.060734034767677 zM130.97060528811775,19.620968752418282 C129.5329931847006,20.357569514611995 127.24790496261858,20.05133232980727 126.3252722657304,18.67744485521501 C124.4585254790604,15.681400951202278 129.74755648391204,13.479853275891163 132.0219565609412,16.15315885738899 C132.9445811729995,17.220825316836212 132.54772921531105,18.842973661426846 130.97060528811775,19.620968752418282 z" id="svg_1" class="" opacity="1" filter="" stroke="#ffb727" stroke-opacity="1" fill="#ffb727" fill-opacity="1"/></g><defs><filter xmlns:inkscape="http://www.inkscape.org/namespaces/inkscape" id="f001" inkscape:label="Matte jelly" x="0" y="0" width="1" height="1" inkscape:menu="ABCs" inkscape:menu-tooltip="Bulging, matte jelly covering" color-interpolation-filters="sRGB">
            <feColorMatrix values="1 0 0 0 0 0 1 0 0 0 0 0 1 0 0 0 0 0 0.85 0" result="result0" in="SourceGraphic"/>
            <feGaussianBlur in="SourceAlpha" stdDeviation="7"/>
            <feSpecularLighting surfaceScale="5" specularConstant=".9" specularExponent="25">
                <feDistantLight elevation="60" azimuth="225"/>
            </feSpecularLighting>
            <feComposite operator="atop" in2="result0"/>
        </filter></defs></svg>